# Blender v2.93.0 OBJ File: 'ground_tiles.blend'
# www.blender.org
mtllib character_model.mtl
o Icosphere
v 0.000000 0.347178 0.000000
v -0.078022 0.406780 -0.056685
v 0.029801 0.406780 -0.091720
v 0.096440 0.406781 0.000000
v 0.029801 0.406780 0.091720
v -0.078022 0.406780 0.056685
v -0.029801 0.503222 -0.091720
v 0.078022 0.503222 -0.056685
v 0.078022 0.503222 0.056685
v -0.029801 0.503222 0.091720
v -0.096440 0.503221 0.000000
v 0.000000 0.562824 0.000000
v 0.017516 0.363281 -0.053911
v -0.045860 0.363281 -0.033319
v -0.028343 0.398314 -0.087230
v -0.091720 0.398314 0.000000
v -0.045860 0.363281 0.033319
v 0.056686 0.363281 0.000000
v 0.074203 0.398314 -0.053911
v 0.017516 0.363281 0.053911
v 0.074203 0.398314 0.053911
v -0.028343 0.398314 0.087230
v -0.102546 0.455001 -0.033319
v -0.102546 0.455001 0.033319
v 0.000000 0.455001 -0.107823
v -0.063377 0.455001 -0.087231
v 0.102546 0.455001 -0.033319
v 0.063377 0.455001 -0.087231
v 0.063377 0.455001 0.087231
v 0.102546 0.455001 0.033319
v -0.063377 0.455001 0.087231
v 0.000000 0.455001 0.107823
v -0.074203 0.511687 -0.053911
v 0.028343 0.511688 -0.087230
v 0.091720 0.511687 0.000000
v 0.028343 0.511688 0.087230
v -0.074203 0.511687 0.053911
v -0.017516 0.546721 -0.053911
v -0.056686 0.546721 0.000000
v 0.045860 0.546721 -0.033319
v 0.045860 0.546721 0.033319
v -0.017516 0.546721 0.053911
v 0.000000 -0.002900 0.000000
v -0.078022 0.109631 -0.056685
v 0.029801 0.109631 -0.091720
v 0.096440 0.109632 0.000000
v 0.029801 0.109631 0.091720
v -0.078022 0.109631 0.056685
v -0.029801 0.291715 -0.091720
v 0.078022 0.291715 -0.056685
v 0.078022 0.291715 0.056685
v -0.029801 0.291715 0.091720
v -0.096440 0.291714 0.000000
v 0.000000 0.404246 0.000000
v 0.017516 0.027503 -0.053911
v -0.045860 0.027503 -0.033319
v -0.028343 0.093647 -0.087230
v -0.091720 0.093647 0.000000
v -0.045860 0.027503 0.033319
v 0.056686 0.027503 0.000000
v 0.074203 0.093647 -0.053911
v 0.017516 0.027503 0.053911
v 0.074203 0.093647 0.053911
v -0.028343 0.093647 0.087230
v -0.102546 0.200673 -0.033319
v -0.102546 0.200673 0.033319
v 0.000000 0.200673 -0.107823
v -0.063377 0.200673 -0.087231
v 0.102546 0.200673 -0.033319
v 0.063377 0.200673 -0.087231
v 0.063377 0.200673 0.087231
v 0.102546 0.200673 0.033319
v -0.063377 0.200673 0.087231
v 0.000000 0.200673 0.107823
v -0.074203 0.307699 -0.053911
v 0.028343 0.307699 -0.087230
v 0.091720 0.307699 0.000000
v 0.028343 0.307699 0.087230
v -0.074203 0.307699 0.053911
v -0.017516 0.373843 -0.053911
v -0.056686 0.373843 0.000000
v 0.045860 0.373843 -0.033319
v 0.045860 0.373843 0.033319
v -0.017516 0.373843 0.053911
v 0.000000 0.495619 0.000000
v -0.161741 0.486173 -0.117510
v 0.061778 0.486173 -0.190137
v 0.199922 0.486173 0.000000
v 0.061778 0.486173 0.190137
v -0.161741 0.486173 0.117510
v -0.061778 0.470890 -0.190137
v 0.161741 0.470890 -0.117510
v 0.161741 0.470890 0.117510
v -0.061778 0.470890 0.190137
v -0.199922 0.470890 0.000000
v 0.000000 0.461445 0.000000
v 0.036312 0.493067 -0.111759
v -0.095068 0.493067 -0.069070
v -0.058756 0.487515 -0.180830
v -0.190137 0.487515 0.000000
v -0.095068 0.493067 0.069070
v 0.117511 0.493067 0.000000
v 0.153824 0.487515 -0.111759
v 0.036312 0.493067 0.111759
v 0.153824 0.487515 0.111759
v -0.058756 0.487515 0.180830
v -0.212580 0.478532 -0.069070
v -0.212580 0.478532 0.069070
v 0.000000 0.478532 -0.223520
v -0.131382 0.478532 -0.180831
v 0.212580 0.478532 -0.069070
v 0.131382 0.478532 -0.180831
v 0.131382 0.478532 0.180831
v 0.212580 0.478532 0.069070
v -0.131382 0.478532 0.180831
v 0.000000 0.478532 0.223520
v -0.153824 0.469548 -0.111759
v 0.058756 0.469548 -0.180830
v 0.190137 0.469548 0.000000
v 0.058756 0.469548 0.180830
v -0.153824 0.469548 0.111759
v -0.036312 0.463997 -0.111759
v -0.117511 0.463997 0.000000
v 0.095068 0.463997 -0.069070
v 0.095068 0.463997 0.069070
v -0.036312 0.463997 0.111759
v 0.018549 0.616230 -0.059104
v 0.000000 0.487100 -0.118822
v 0.058546 0.604111 -0.041793
v 0.084020 0.487100 -0.084020
v 0.075114 0.599092 0.000000
v 0.118822 0.487100 0.000000
v 0.058546 0.604111 0.041793
v 0.084020 0.487100 0.084020
v 0.018549 0.616230 0.059104
v -0.000000 0.487100 0.118822
v -0.021448 0.628349 0.041793
v -0.084020 0.487100 0.084020
v -0.038015 0.633368 -0.000000
v -0.118822 0.487100 -0.000000
v -0.021448 0.628349 -0.041793
v -0.084020 0.487100 -0.084020
v 0.095425 0.714123 -0.030999
v 0.110491 0.698202 -0.021920
v 0.116732 0.691607 0.000000
v 0.110491 0.698202 0.021920
v 0.095425 0.714123 0.030999
v 0.080358 0.730044 0.021920
v 0.074117 0.736638 0.000000
v 0.080358 0.730044 -0.021920
v 0.190491 0.727773 -0.012419
v 0.190442 0.718992 -0.008782
v 0.190422 0.715354 0.000000
v 0.190442 0.718992 0.008782
v 0.190491 0.727773 0.012419
v 0.190539 0.736555 0.008782
v 0.190559 0.740192 0.000000
v 0.190539 0.736555 -0.008782
v 0.009576 0.553766 -0.087991
v 0.003393 0.510722 -0.107897
v 0.079360 0.508505 -0.076295
v 0.070869 0.547509 -0.062219
v 0.110826 0.507587 0.000000
v 0.096257 0.544918 0.000000
v 0.079360 0.508505 0.076295
v 0.070869 0.547509 0.062219
v 0.003393 0.510722 0.107897
v 0.009576 0.553766 0.087991
v -0.072573 0.512939 0.076295
v -0.051716 0.560022 0.062219
v -0.104039 0.513857 -0.000000
v -0.077104 0.562614 -0.000000
v -0.072573 0.512939 -0.076295
v -0.051716 0.560022 -0.062219
vt 0.181819 0.000000
vt 0.227273 0.078731
vt 0.136365 0.078731
vt 0.272728 0.157461
vt 0.318182 0.078731
vt 0.363637 0.157461
vt 0.909091 0.000000
vt 0.954545 0.078731
vt 0.863636 0.078731
vt 0.727273 0.000000
vt 0.772727 0.078731
vt 0.681818 0.078731
vt 0.545455 0.000000
vt 0.590909 0.078731
vt 0.500000 0.078731
vt 0.318182 0.236191
vt 0.090910 0.157461
vt 0.181819 0.157461
vt 0.136365 0.236191
vt 0.818182 0.157461
vt 0.909091 0.157461
vt 0.863636 0.236191
vt 0.636364 0.157461
vt 0.727273 0.157461
vt 0.681818 0.236191
vt 0.454546 0.157461
vt 0.545455 0.157461
vt 0.500000 0.236191
vt 0.227273 0.236191
vt 0.045455 0.236191
vt 0.772727 0.236191
vt 0.590909 0.236191
vt 0.409092 0.236191
vt 0.181819 0.314921
vt 0.272728 0.314921
vt 0.227273 0.393651
vt 0.000000 0.314921
vt 0.090910 0.314921
vt 0.045455 0.393651
vt 0.727273 0.314921
vt 0.818182 0.314921
vt 0.772727 0.393651
vt 0.545455 0.314921
vt 0.636364 0.314921
vt 0.590909 0.393651
vt 0.363637 0.314921
vt 0.454546 0.314921
vt 0.409092 0.393651
vt 0.500000 0.393651
vt 0.454546 0.472382
vt 0.681818 0.393651
vt 0.636364 0.472382
vt 0.863636 0.393651
vt 0.818182 0.472382
vt 0.909091 0.314921
vt 0.136365 0.393651
vt 0.090910 0.472382
vt 0.318182 0.393651
vt 0.272728 0.472382
vt 0.954545 0.236191
vt 1.000000 0.157461
vt 0.409092 0.078731
vt 0.363637 0.000000
vt 0.181819 0.000000
vt 0.136365 0.078731
vt 0.227273 0.078731
vt 0.272728 0.157461
vt 0.363637 0.157461
vt 0.318182 0.078731
vt 0.909091 0.000000
vt 0.863636 0.078731
vt 0.954545 0.078731
vt 0.727273 0.000000
vt 0.681818 0.078731
vt 0.772727 0.078731
vt 0.545455 0.000000
vt 0.500000 0.078731
vt 0.590909 0.078731
vt 0.318182 0.236191
vt 0.090910 0.157461
vt 0.136365 0.236191
vt 0.181819 0.157461
vt 0.818182 0.157461
vt 0.863636 0.236191
vt 0.909091 0.157461
vt 0.636364 0.157461
vt 0.681818 0.236191
vt 0.727273 0.157461
vt 0.454546 0.157461
vt 0.500000 0.236191
vt 0.545455 0.157461
vt 0.227273 0.236191
vt 0.045455 0.236191
vt 0.772727 0.236191
vt 0.590909 0.236191
vt 0.409092 0.236191
vt 0.181819 0.314921
vt 0.227273 0.393651
vt 0.272728 0.314921
vt 0.000000 0.314921
vt 0.045455 0.393651
vt 0.090910 0.314921
vt 0.727273 0.314921
vt 0.772727 0.393651
vt 0.818182 0.314921
vt 0.545455 0.314921
vt 0.590909 0.393651
vt 0.636364 0.314921
vt 0.363637 0.314921
vt 0.409092 0.393651
vt 0.454546 0.314921
vt 0.454546 0.472382
vt 0.500000 0.393651
vt 0.636364 0.472382
vt 0.681818 0.393651
vt 0.818182 0.472382
vt 0.863636 0.393651
vt 0.909091 0.314921
vt 0.090910 0.472382
vt 0.136365 0.393651
vt 0.272728 0.472382
vt 0.318182 0.393651
vt 0.954545 0.236191
vt 1.000000 0.157461
vt 0.409092 0.078731
vt 0.363637 0.000000
vt 1.000000 0.908532
vt 0.875000 0.908532
vt 0.875000 1.000000
vt 1.000000 1.000000
vt 0.750000 0.908532
vt 0.750000 1.000000
vt 0.625000 0.908532
vt 0.625000 1.000000
vt 0.500000 0.908532
vt 0.500000 1.000000
vt 0.375000 0.908532
vt 0.375000 1.000000
vt 0.250000 0.908532
vt 0.250000 1.000000
vt 0.419706 0.419706
vt 0.490000 0.250000
vt 0.419706 0.080294
vt 0.250000 0.010000
vt 0.080294 0.080294
vt 0.010000 0.250000
vt 0.080294 0.419706
vt 0.250000 0.490000
vt 0.125000 0.908532
vt 0.125000 1.000000
vt 0.000000 0.908532
vt 0.000000 1.000000
vt 0.125000 0.500000
vt 0.125000 0.500000
vt 0.000000 0.500000
vt 0.000000 0.500000
vt 1.000000 0.500000
vt 1.000000 0.500000
vt 0.875000 0.500000
vt 0.875000 0.500000
vt 0.750000 0.500000
vt 0.750000 0.500000
vt 0.625000 0.500000
vt 0.625000 0.500000
vt 0.375000 0.500000
vt 0.375000 0.500000
vt 0.250000 0.500000
vt 0.250000 0.500000
vt 0.500000 0.500000
vt 0.500000 0.500000
vt 0.000000 0.741866
vt 0.125000 0.741866
vt 0.250000 0.741865
vt 0.375000 0.741866
vt 0.500000 0.741865
vt 0.625000 0.741866
vt 0.750000 0.741865
vt 0.875000 0.741865
vt 1.000000 0.741865
vt 0.181819 0.000000
vt 0.227273 0.078731
vt 0.136365 0.078731
vt 0.272728 0.157461
vt 0.318182 0.078731
vt 0.363637 0.157461
vt 0.909091 0.000000
vt 0.954545 0.078731
vt 0.863636 0.078731
vt 0.727273 0.000000
vt 0.772727 0.078731
vt 0.681818 0.078731
vt 0.545455 0.000000
vt 0.590909 0.078731
vt 0.500000 0.078731
vt 0.318182 0.236191
vt 0.090910 0.157461
vt 0.181819 0.157461
vt 0.136365 0.236191
vt 0.818182 0.157461
vt 0.909091 0.157461
vt 0.863636 0.236191
vt 0.636364 0.157461
vt 0.727273 0.157461
vt 0.681818 0.236191
vt 0.454546 0.157461
vt 0.545455 0.157461
vt 0.500000 0.236191
vt 0.227273 0.236191
vt 0.045455 0.236191
vt 0.772727 0.236191
vt 0.590909 0.236191
vt 0.409092 0.236191
vt 0.181819 0.314921
vt 0.272728 0.314921
vt 0.227273 0.393651
vt 0.000000 0.314921
vt 0.090910 0.314921
vt 0.045455 0.393651
vt 0.727273 0.314921
vt 0.818182 0.314921
vt 0.772727 0.393651
vt 0.545455 0.314921
vt 0.636364 0.314921
vt 0.590909 0.393651
vt 0.363637 0.314921
vt 0.454546 0.314921
vt 0.409092 0.393651
vt 0.500000 0.393651
vt 0.454546 0.472382
vt 0.681818 0.393651
vt 0.636364 0.472382
vt 0.863636 0.393651
vt 0.818182 0.472382
vt 0.909091 0.314921
vt 0.136365 0.393651
vt 0.090910 0.472382
vt 0.318182 0.393651
vt 0.272728 0.472382
vt 0.954545 0.236191
vt 1.000000 0.157461
vt 0.409092 0.078731
vt 0.363637 0.000000
vt 0.125000 0.500000
vt 0.000000 0.500000
vt 0.750000 0.490000
vt 0.580294 0.419706
vt 0.510000 0.250000
vt 0.580294 0.080294
vt 0.750000 0.010000
vt 0.919706 0.080294
vt 0.990000 0.250000
vt 0.919706 0.419706
vt 0.375000 0.500000
vt 0.250000 0.500000
vt 0.625000 0.500000
vt 0.500000 0.500000
vt 0.875000 0.500000
vt 0.750000 0.500000
vt 1.000000 0.500000
vn 0.0000 -1.0000 0.0000
vn -0.4253 -0.8506 -0.3090
vn 0.1625 -0.8506 -0.5000
vn -0.7236 -0.4472 -0.5257
vn -0.8506 -0.5257 0.0000
vn 0.5257 -0.8506 0.0000
vn 0.1625 -0.8506 0.5000
vn -0.4253 -0.8506 0.3090
vn -0.9510 0.0000 -0.3090
vn 0.2764 -0.4472 -0.8506
vn -0.2629 -0.5257 -0.8090
vn 0.0000 0.0000 -1.0000
vn 0.8944 -0.4472 0.0000
vn 0.6882 -0.5257 -0.5000
vn 0.9510 0.0000 -0.3090
vn 0.2764 -0.4472 0.8506
vn 0.6882 -0.5257 0.5000
vn 0.5878 0.0000 0.8090
vn -0.7236 -0.4472 0.5257
vn -0.2629 -0.5257 0.8090
vn -0.5878 0.0000 0.8090
vn -0.5878 0.0000 -0.8090
vn 0.5878 0.0000 -0.8090
vn 0.9510 0.0000 0.3090
vn 0.0000 0.0000 1.0000
vn -0.9510 0.0000 0.3090
vn -0.2764 0.4472 -0.8506
vn -0.6882 0.5257 -0.5000
vn -0.1625 0.8506 -0.5000
vn 0.7236 0.4472 -0.5257
vn 0.2629 0.5257 -0.8090
vn 0.4253 0.8506 -0.3090
vn 0.7236 0.4472 0.5257
vn 0.8506 0.5257 0.0000
vn 0.4253 0.8506 0.3090
vn -0.2764 0.4472 0.8506
vn 0.2629 0.5257 0.8090
vn -0.1625 0.8506 0.5000
vn -0.8944 0.4472 0.0000
vn -0.6882 0.5257 0.5000
vn -0.5257 0.8506 0.0000
vn 0.0000 1.0000 0.0000
vn 0.0167 0.9985 -0.0513
vn -0.0437 0.9985 -0.0317
vn -0.2435 0.9536 -0.1769
vn -0.2153 0.9765 0.0000
vn 0.0540 0.9985 0.0000
vn 0.0167 0.9985 0.0513
vn -0.0437 0.9985 0.0317
vn 0.0930 0.9536 -0.2863
vn -0.0665 0.9765 -0.2047
vn 0.3010 0.9536 0.0000
vn 0.1742 0.9765 -0.1265
vn 0.0930 0.9536 0.2863
vn 0.1742 0.9765 0.1265
vn -0.2435 0.9536 0.1769
vn -0.0665 0.9765 0.2047
vn -0.0930 -0.9536 -0.2862
vn -0.0167 -0.9985 -0.0513
vn -0.1742 -0.9765 -0.1265
vn 0.2435 -0.9536 -0.1769
vn 0.0437 -0.9985 -0.0317
vn 0.0665 -0.9765 -0.2047
vn 0.2435 -0.9536 0.1769
vn 0.0437 -0.9985 0.0317
vn 0.2153 -0.9765 0.0000
vn -0.0930 -0.9536 0.2863
vn -0.0167 -0.9985 0.0513
vn 0.0665 -0.9765 0.2047
vn -0.3010 -0.9536 0.0000
vn -0.0540 -0.9985 0.0000
vn -0.1742 -0.9765 0.1265
vn 0.0173 0.4187 -0.9079
vn 0.6653 0.3713 -0.6476
vn 0.6079 -0.4828 -0.6304
vn -0.0222 -0.4609 -0.8871
vn 0.9357 0.3528 0.0000
vn 0.8707 -0.4918 0.0000
vn 0.6653 0.3713 0.6476
vn 0.6079 -0.4828 0.6304
vn 0.0173 0.4187 0.9079
vn -0.0222 -0.4609 0.8871
vn -0.6163 0.4682 0.6332
vn -0.6459 -0.4396 0.6241
vn -0.8723 0.4888 0.0000
vn -0.9023 -0.4310 0.0000
vn -0.6459 -0.4396 -0.6241
vn -0.6163 0.4682 -0.6332
vn -0.5566 0.5371 -0.6338
vn -0.2557 0.7351 -0.6278
vn 0.1082 0.2350 -0.9659
vn 0.0346 0.3402 -0.9397
vn 0.4913 -0.4177 -0.7642
vn 0.6925 0.1051 -0.7136
vn 0.9999 -0.0093 0.0000
vn 0.6628 -0.7487 0.0000
vn 0.4913 -0.4177 0.7642
vn 0.6925 0.1051 0.7136
vn -0.5566 0.5371 0.6338
vn -0.2557 0.7351 0.6278
vn -0.4017 0.9157 0.0000
vn -0.7909 0.6119 0.0000
vn 0.1082 0.2350 0.9659
vn 0.0346 0.3402 0.9397
vn 0.0454 0.4153 -0.9085
vn -0.6032 0.4677 -0.6461
vn -0.8716 0.4902 0.0000
vn -0.6032 0.4677 0.6461
vn 0.0454 0.4153 0.9085
vn 0.6811 0.3678 0.6330
vn 0.9366 0.3503 0.0000
vn 0.6811 0.3678 -0.6330
vn -0.5763 -0.7019 -0.4187
vn 0.2201 -0.7019 -0.6774
vn -0.7780 -0.2742 -0.5652
vn -0.9386 -0.3450 0.0000
vn 0.7123 -0.7019 0.0000
vn 0.2201 -0.7019 0.6774
vn -0.5763 -0.7019 0.4187
vn 0.2972 -0.2742 -0.9146
vn -0.2900 -0.3450 -0.8927
vn 0.9617 -0.2742 0.0000
vn 0.7593 -0.3450 -0.5517
vn 0.2972 -0.2742 0.9146
vn 0.7593 -0.3450 0.5517
vn -0.7780 -0.2742 0.5652
vn -0.2900 -0.3450 0.8927
vn -0.2972 0.2742 -0.9146
vn -0.7593 0.3450 -0.5517
vn -0.2201 0.7019 -0.6774
vn 0.7780 0.2742 -0.5652
vn 0.2900 0.3450 -0.8927
vn 0.5763 0.7019 -0.4187
vn 0.7780 0.2742 0.5652
vn 0.9386 0.3450 0.0000
vn 0.5763 0.7019 0.4187
vn -0.2972 0.2742 0.9146
vn 0.2900 0.3450 0.8927
vn -0.2201 0.7019 0.6774
vn -0.9617 0.2742 0.0000
vn -0.7593 0.3450 0.5517
vn -0.7123 0.7019 0.0000
vn 0.6372 0.6082 -0.4734
vn 0.6965 0.0904 -0.7118
vn 0.6138 0.7894 0.0000
vn 0.6372 0.6082 0.4734
vn 0.6965 0.0904 0.7118
vn 0.7353 -0.4628 0.4951
vn 0.7408 -0.6717 0.0000
vn 0.7353 -0.4628 -0.4951
usemtl witch_hat
s 1
f 1/1/1 14/2/2 13/3/3
f 2/4/4 14/5/2 16/6/5
f 1/7/1 13/8/3 18/9/6
f 1/10/1 18/11/6 20/12/7
f 1/13/1 20/14/7 17/15/8
f 2/4/4 16/6/5 23/16/9
f 3/17/10 15/18/11 25/19/12
f 4/20/13 19/21/14 27/22/15
f 5/23/16 21/24/17 29/25/18
f 6/26/19 22/27/20 31/28/21
f 2/4/4 23/16/9 26/29/22
f 3/17/10 25/19/12 28/30/23
f 4/20/13 27/22/15 30/31/24
f 5/23/16 29/25/18 32/32/25
f 6/26/19 31/28/21 24/33/26
f 7/34/27 33/35/28 38/36/29
f 8/37/30 34/38/31 40/39/32
f 9/40/33 35/41/34 41/42/35
f 10/43/36 36/44/37 42/45/38
f 11/46/39 37/47/40 39/48/41
f 39/48/41 42/49/38 12/50/42
f 39/48/41 37/47/40 42/49/38
f 37/47/40 10/43/36 42/49/38
f 42/45/38 41/51/35 12/52/42
f 42/45/38 36/44/37 41/51/35
f 36/44/37 9/40/33 41/51/35
f 41/42/35 40/53/32 12/54/42
f 41/42/35 35/41/34 40/53/32
f 35/41/34 8/55/30 40/53/32
f 40/39/32 38/56/29 12/57/42
f 40/39/32 34/38/31 38/56/29
f 34/38/31 7/34/27 38/56/29
f 38/36/29 39/58/41 12/59/42
f 38/36/29 33/35/28 39/58/41
f 33/35/28 11/46/39 39/58/41
f 24/33/26 37/47/40 11/46/39
f 24/33/26 31/28/21 37/47/40
f 31/28/21 10/43/36 37/47/40
f 32/32/25 36/44/37 10/43/36
f 32/32/25 29/25/18 36/44/37
f 29/25/18 9/40/33 36/44/37
f 30/31/24 35/41/34 9/40/33
f 30/31/24 27/22/15 35/41/34
f 27/22/15 8/55/30 35/41/34
f 28/30/23 34/38/31 8/37/30
f 28/30/23 25/19/12 34/38/31
f 25/19/12 7/34/27 34/38/31
f 26/29/22 33/35/28 7/34/27
f 26/29/22 23/16/9 33/35/28
f 23/16/9 11/46/39 33/35/28
f 31/28/21 32/32/25 10/43/36
f 31/28/21 22/27/20 32/32/25
f 22/27/20 5/23/16 32/32/25
f 29/25/18 30/31/24 9/40/33
f 29/25/18 21/24/17 30/31/24
f 21/24/17 4/20/13 30/31/24
f 27/22/15 28/60/23 8/55/30
f 27/22/15 19/21/14 28/60/23
f 19/21/14 3/61/10 28/60/23
f 25/19/12 26/29/22 7/34/27
f 25/19/12 15/18/11 26/29/22
f 15/18/11 2/4/4 26/29/22
f 23/16/9 24/33/26 11/46/39
f 23/16/9 16/6/5 24/33/26
f 16/6/5 6/26/19 24/33/26
f 17/15/8 22/27/20 6/26/19
f 17/15/8 20/14/7 22/27/20
f 20/14/7 5/23/16 22/27/20
f 20/12/7 21/24/17 5/23/16
f 20/12/7 18/11/6 21/24/17
f 18/11/6 4/20/13 21/24/17
f 18/9/6 19/21/14 4/20/13
f 18/9/6 13/8/3 19/21/14
f 13/8/3 3/61/10 19/21/14
f 16/6/5 17/62/8 6/26/19
f 16/6/5 14/5/2 17/62/8
f 14/5/2 1/63/1 17/62/8
f 13/3/3 15/18/11 3/17/10
f 13/3/3 14/2/2 15/18/11
f 14/2/2 2/4/4 15/18/11
f 85/64/42 97/65/43 98/66/44
f 86/67/45 100/68/46 98/69/44
f 85/70/42 102/71/47 97/72/43
f 85/73/42 104/74/48 102/75/47
f 85/76/42 101/77/49 104/78/48
f 86/67/45 107/79/9 100/68/46
f 87/80/50 109/81/12 99/82/51
f 88/83/52 111/84/15 103/85/53
f 89/86/54 113/87/18 105/88/55
f 90/89/56 115/90/21 106/91/57
f 86/67/45 110/92/22 107/79/9
f 87/80/50 112/93/23 109/81/12
f 88/83/52 114/94/24 111/84/15
f 89/86/54 116/95/25 113/87/18
f 90/89/56 108/96/26 115/90/21
f 91/97/58 122/98/59 117/99/60
f 92/100/61 124/101/62 118/102/63
f 93/103/64 125/104/65 119/105/66
f 94/106/67 126/107/68 120/108/69
f 95/109/70 123/110/71 121/111/72
f 123/110/71 96/112/1 126/113/68
f 123/110/71 126/113/68 121/111/72
f 121/111/72 126/113/68 94/106/67
f 126/107/68 96/114/1 125/115/65
f 126/107/68 125/115/65 120/108/69
f 120/108/69 125/115/65 93/103/64
f 125/104/65 96/116/1 124/117/62
f 125/104/65 124/117/62 119/105/66
f 119/105/66 124/117/62 92/118/61
f 124/101/62 96/119/1 122/120/59
f 124/101/62 122/120/59 118/102/63
f 118/102/63 122/120/59 91/97/58
f 122/98/59 96/121/1 123/122/71
f 122/98/59 123/122/71 117/99/60
f 117/99/60 123/122/71 95/109/70
f 108/96/26 95/109/70 121/111/72
f 108/96/26 121/111/72 115/90/21
f 115/90/21 121/111/72 94/106/67
f 116/95/25 94/106/67 120/108/69
f 116/95/25 120/108/69 113/87/18
f 113/87/18 120/108/69 93/103/64
f 114/94/24 93/103/64 119/105/66
f 114/94/24 119/105/66 111/84/15
f 111/84/15 119/105/66 92/118/61
f 112/93/23 92/100/61 118/102/63
f 112/93/23 118/102/63 109/81/12
f 109/81/12 118/102/63 91/97/58
f 110/92/22 91/97/58 117/99/60
f 110/92/22 117/99/60 107/79/9
f 107/79/9 117/99/60 95/109/70
f 115/90/21 94/106/67 116/95/25
f 115/90/21 116/95/25 106/91/57
f 106/91/57 116/95/25 89/86/54
f 113/87/18 93/103/64 114/94/24
f 113/87/18 114/94/24 105/88/55
f 105/88/55 114/94/24 88/83/52
f 111/84/15 92/118/61 112/123/23
f 111/84/15 112/123/23 103/85/53
f 103/85/53 112/123/23 87/124/50
f 109/81/12 91/97/58 110/92/22
f 109/81/12 110/92/22 99/82/51
f 99/82/51 110/92/22 86/67/45
f 107/79/9 95/109/70 108/96/26
f 107/79/9 108/96/26 100/68/46
f 100/68/46 108/96/26 90/89/56
f 101/77/49 90/89/56 106/91/57
f 101/77/49 106/91/57 104/78/48
f 104/78/48 106/91/57 89/86/54
f 104/74/48 89/86/54 105/88/55
f 104/74/48 105/88/55 102/75/47
f 102/75/47 105/88/55 88/83/52
f 102/71/47 88/83/52 103/85/53
f 102/71/47 103/85/53 97/72/43
f 97/72/43 103/85/53 87/124/50
f 100/68/46 90/89/56 101/125/49
f 100/68/46 101/125/49 98/69/44
f 98/69/44 101/125/49 85/126/42
f 97/65/43 87/80/50 99/82/51
f 97/65/43 99/82/51 98/66/44
f 98/66/44 99/82/51 86/67/45
f 160/127/73 161/128/74 130/129/75 128/130/76
f 161/128/74 163/131/77 132/132/78 130/129/75
f 163/131/77 165/133/79 134/134/80 132/132/78
f 165/133/79 167/135/81 136/136/82 134/134/80
f 167/135/81 169/137/83 138/138/84 136/136/82
f 169/137/83 171/139/85 140/140/86 138/138/84
f 130/141/75 132/142/78 134/143/80 136/144/82 138/145/84 140/146/86 142/147/87 128/148/76
f 171/139/85 173/149/88 142/150/87 140/140/86
f 173/149/88 160/151/73 128/152/76 142/150/87
f 141/153/89 150/154/90 143/155/91 127/156/92
f 127/157/92 143/158/91 144/159/93 129/160/94
f 131/161/95 145/162/96 146/163/97 133/164/98
f 137/165/99 148/166/100 149/167/101 139/168/102
f 133/164/98 146/163/97 147/169/103 135/170/104
f 139/168/102 149/167/101 150/154/90 141/153/89
f 129/160/94 144/159/93 145/162/96 131/161/95
f 135/170/104 147/169/103 148/166/100 137/165/99
f 141/153/89 127/156/92 159/171/105 174/172/106
f 139/168/102 141/153/89 174/172/106 172/173/107
f 137/165/99 139/168/102 172/173/107 170/174/108
f 135/170/104 137/165/99 170/174/108 168/175/109
f 133/164/98 135/170/104 168/175/109 166/176/110
f 131/161/95 133/164/98 166/176/110 164/177/111
f 129/160/94 131/161/95 164/177/111 162/178/112
f 127/157/92 129/160/94 162/178/112 159/179/105
usemtl hat_band
f 43/180/1 56/181/113 55/182/114
f 44/183/115 56/184/113 58/185/116
f 43/186/1 55/187/114 60/188/117
f 43/189/1 60/190/117 62/191/118
f 43/192/1 62/193/118 59/194/119
f 44/183/115 58/185/116 65/195/9
f 45/196/120 57/197/121 67/198/12
f 46/199/122 61/200/123 69/201/15
f 47/202/124 63/203/125 71/204/18
f 48/205/126 64/206/127 73/207/21
f 44/183/115 65/195/9 68/208/22
f 45/196/120 67/198/12 70/209/23
f 46/199/122 69/201/15 72/210/24
f 47/202/124 71/204/18 74/211/25
f 48/205/126 73/207/21 66/212/26
f 49/213/128 75/214/129 80/215/130
f 50/216/131 76/217/132 82/218/133
f 51/219/134 77/220/135 83/221/136
f 52/222/137 78/223/138 84/224/139
f 53/225/140 79/226/141 81/227/142
f 81/227/142 84/228/139 54/229/42
f 81/227/142 79/226/141 84/228/139
f 79/226/141 52/222/137 84/228/139
f 84/224/139 83/230/136 54/231/42
f 84/224/139 78/223/138 83/230/136
f 78/223/138 51/219/134 83/230/136
f 83/221/136 82/232/133 54/233/42
f 83/221/136 77/220/135 82/232/133
f 77/220/135 50/234/131 82/232/133
f 82/218/133 80/235/130 54/236/42
f 82/218/133 76/217/132 80/235/130
f 76/217/132 49/213/128 80/235/130
f 80/215/130 81/237/142 54/238/42
f 80/215/130 75/214/129 81/237/142
f 75/214/129 53/225/140 81/237/142
f 66/212/26 79/226/141 53/225/140
f 66/212/26 73/207/21 79/226/141
f 73/207/21 52/222/137 79/226/141
f 74/211/25 78/223/138 52/222/137
f 74/211/25 71/204/18 78/223/138
f 71/204/18 51/219/134 78/223/138
f 72/210/24 77/220/135 51/219/134
f 72/210/24 69/201/15 77/220/135
f 69/201/15 50/234/131 77/220/135
f 70/209/23 76/217/132 50/216/131
f 70/209/23 67/198/12 76/217/132
f 67/198/12 49/213/128 76/217/132
f 68/208/22 75/214/129 49/213/128
f 68/208/22 65/195/9 75/214/129
f 65/195/9 53/225/140 75/214/129
f 73/207/21 74/211/25 52/222/137
f 73/207/21 64/206/127 74/211/25
f 64/206/127 47/202/124 74/211/25
f 71/204/18 72/210/24 51/219/134
f 71/204/18 63/203/125 72/210/24
f 63/203/125 46/199/122 72/210/24
f 69/201/15 70/239/23 50/234/131
f 69/201/15 61/200/123 70/239/23
f 61/200/123 45/240/120 70/239/23
f 67/198/12 68/208/22 49/213/128
f 67/198/12 57/197/121 68/208/22
f 57/197/121 44/183/115 68/208/22
f 65/195/9 66/212/26 53/225/140
f 65/195/9 58/185/116 66/212/26
f 58/185/116 48/205/126 66/212/26
f 59/194/119 64/206/127 48/205/126
f 59/194/119 62/193/118 64/206/127
f 62/193/118 47/202/124 64/206/127
f 62/191/118 63/203/125 47/202/124
f 62/191/118 60/190/117 63/203/125
f 60/190/117 46/199/122 63/203/125
f 60/188/117 61/200/123 46/199/122
f 60/188/117 55/187/114 61/200/123
f 55/187/114 45/240/120 61/200/123
f 58/185/116 59/241/119 48/205/126
f 58/185/116 56/184/113 59/241/119
f 56/184/113 43/242/1 59/241/119
f 55/182/114 57/197/121 45/196/120
f 55/182/114 56/181/113 57/197/121
f 56/181/113 44/183/115 57/197/121
f 150/154/90 158/243/143 151/244/144 143/155/91
f 151/245/144 158/246/143 157/247/145 156/248/146 155/249/147 154/250/148 153/251/149 152/252/150
f 148/166/100 156/253/146 157/254/145 149/167/101
f 146/163/97 154/255/148 155/256/147 147/169/103
f 144/159/93 152/257/150 153/258/149 145/162/96
f 149/167/101 157/254/145 158/243/143 150/154/90
f 147/169/103 155/256/147 156/253/146 148/166/100
f 145/162/96 153/258/149 154/255/148 146/163/97
f 143/158/91 151/259/144 152/257/150 144/159/93
f 174/172/106 159/171/105 160/151/73 173/149/88
f 172/173/107 174/172/106 173/149/88 171/139/85
f 170/174/108 172/173/107 171/139/85 169/137/83
f 168/175/109 170/174/108 169/137/83 167/135/81
f 166/176/110 168/175/109 167/135/81 165/133/79
f 164/177/111 166/176/110 165/133/79 163/131/77
f 162/178/112 164/177/111 163/131/77 161/128/74
f 159/179/105 162/178/112 161/128/74 160/127/73
