# Blender v2.93.0 OBJ File: 'ground_tiles.blend'
# www.blender.org
mtllib tile_short.mtl
o tile_short_Cube.017
v -0.456216 -0.029677 0.391149
v -0.391149 -0.029677 0.456216
v -0.447499 -0.029677 0.423682
v -0.423682 -0.029677 0.447499
v -0.513716 -0.129677 0.451310
v -0.451310 -0.129677 0.513716
v -0.505355 -0.129677 0.482513
v -0.482513 -0.129677 0.505355
v -0.484966 -0.043074 0.420494
v -0.420494 -0.043074 0.484966
v -0.476329 -0.043074 0.452730
v -0.452730 -0.043074 0.476329
v -0.506013 -0.079677 0.442720
v -0.442720 -0.079677 0.506013
v -0.497533 -0.079677 0.474366
v -0.474366 -0.079677 0.497533
v -0.421572 -0.500000 0.484966
v -0.484966 -0.500000 0.421572
v -0.453269 -0.500000 0.476473
v -0.476473 -0.500000 0.453269
v -0.451620 -0.450000 0.513716
v -0.513716 -0.450000 0.451620
v -0.482668 -0.450000 0.505397
v -0.505397 -0.450000 0.482668
v -0.442497 -0.485355 0.505296
v -0.505296 -0.485355 0.442497
v -0.473896 -0.485355 0.496882
v -0.496882 -0.485355 0.473896
v -0.391149 -0.029677 -0.456216
v -0.456216 -0.029677 -0.391149
v -0.423682 -0.029677 -0.447499
v -0.447499 -0.029677 -0.423682
v -0.451310 -0.129677 -0.513716
v -0.513716 -0.129677 -0.451310
v -0.482513 -0.129677 -0.505355
v -0.505355 -0.129677 -0.482513
v -0.420494 -0.043074 -0.484966
v -0.484966 -0.043074 -0.420494
v -0.452730 -0.043074 -0.476329
v -0.476329 -0.043074 -0.452730
v -0.442720 -0.079677 -0.506013
v -0.506013 -0.079677 -0.442720
v -0.474366 -0.079677 -0.497533
v -0.497533 -0.079677 -0.474366
v 0.391149 -0.029677 0.456216
v 0.456216 -0.029677 0.391149
v 0.423682 -0.029677 0.447499
v 0.447499 -0.029677 0.423682
v 0.451310 -0.129677 0.513716
v 0.513716 -0.129677 0.451310
v 0.482513 -0.129677 0.505355
v 0.505355 -0.129677 0.482513
v 0.420494 -0.043074 0.484966
v 0.484966 -0.043074 0.420494
v 0.452730 -0.043074 0.476329
v 0.476329 -0.043074 0.452730
v 0.442720 -0.079677 0.506013
v 0.506013 -0.079677 0.442720
v 0.474366 -0.079677 0.497533
v 0.497533 -0.079677 0.474366
v -0.484966 -0.500000 -0.421572
v -0.421572 -0.500000 -0.484966
v -0.476473 -0.500000 -0.453269
v -0.453269 -0.500000 -0.476473
v -0.513716 -0.450000 -0.451620
v -0.451620 -0.450000 -0.513716
v -0.505397 -0.450000 -0.482668
v -0.482668 -0.450000 -0.505397
v -0.505296 -0.485355 -0.442497
v -0.442497 -0.485355 -0.505296
v -0.496882 -0.485355 -0.473896
v -0.473896 -0.485355 -0.496882
v 0.484966 -0.500000 0.421572
v 0.421572 -0.500000 0.484966
v 0.476473 -0.500000 0.453269
v 0.453269 -0.500000 0.476473
v 0.451620 -0.450000 0.513716
v 0.482935 -0.450008 0.505114
v 0.505296 -0.485355 0.442497
v 0.442497 -0.485355 0.505296
v 0.496882 -0.485355 0.473896
v 0.473896 -0.485355 0.496882
v 0.513716 -0.450000 0.452441
v 0.505452 -0.450000 0.483283
v 0.456216 -0.029677 -0.391149
v 0.391149 -0.029677 -0.456216
v 0.447499 -0.029677 -0.423682
v 0.423682 -0.029677 -0.447499
v 0.513716 -0.129677 -0.451310
v 0.451310 -0.129677 -0.513716
v 0.505355 -0.129677 -0.482513
v 0.482513 -0.129677 -0.505355
v 0.484966 -0.043074 -0.420494
v 0.420494 -0.043074 -0.484966
v 0.476329 -0.043074 -0.452730
v 0.452730 -0.043074 -0.476329
v 0.506013 -0.079677 -0.442720
v 0.442720 -0.079677 -0.506013
v 0.497533 -0.079677 -0.474366
v 0.474366 -0.079677 -0.497533
v 0.421572 -0.500000 -0.484966
v 0.484966 -0.500000 -0.421572
v 0.453269 -0.500000 -0.476473
v 0.476473 -0.500000 -0.453269
v 0.451620 -0.450000 -0.513716
v 0.513716 -0.450000 -0.451620
v 0.482668 -0.450000 -0.505397
v 0.505397 -0.450000 -0.482668
v 0.442497 -0.485355 -0.505296
v 0.505296 -0.485355 -0.442497
v 0.473896 -0.485355 -0.496882
v 0.496882 -0.485355 -0.473896
vt 0.707279 0.999900
vt 0.291353 0.999644
vt 0.281039 0.986615
vt 0.717610 0.986883
vt 0.276551 0.966129
vt 0.722123 0.966403
vt 0.033610 0.276655
vt 0.232191 0.276806
vt 0.232194 0.722131
vt 0.033613 0.722285
vt 0.723200 0.033871
vt 0.722925 0.232426
vt 0.277659 0.232152
vt 0.277628 0.033597
vt 0.262017 0.296403
vt 0.261433 0.703082
vt 0.283148 0.311704
vt 0.282460 0.687628
vt 0.702355 0.674863
vt 0.702798 0.326011
vt 0.717292 0.312375
vt 0.716601 0.688295
vt 0.737732 0.703596
vt 0.738318 0.296921
vt 0.767556 0.277875
vt 0.767557 0.723192
vt 0.296420 0.737768
vt 0.703039 0.738598
vt 0.722092 0.767848
vt 0.276826 0.767575
vt 0.674591 0.297592
vt 0.325796 0.296927
vt 0.312166 0.282433
vt 0.688029 0.283354
vt 0.296711 0.261401
vt 0.703333 0.262233
vt 0.311722 0.716648
vt 0.687584 0.717566
vt 0.698584 0.688962
vt 0.688232 0.699305
vt 0.673954 0.703073
vt 0.325161 0.702409
vt 0.311061 0.698633
vt 0.300719 0.688276
vt 0.296953 0.673991
vt 0.297394 0.325137
vt 0.301165 0.311037
vt 0.311518 0.300694
vt 0.688690 0.301369
vt 0.699032 0.311726
vt 0.013127 0.717784
vt 0.013124 0.281156
vt 0.282141 0.013117
vt 0.718712 0.013386
vt 0.999644 0.292546
vt 0.999644 0.708520
vt 0.986620 0.718843
vt 0.986619 0.282223
vt 0.966134 0.723344
vt 0.966133 0.277317
vt 0.292472 0.000100
vt 0.708398 0.000357
vt 0.000102 0.707460
vt 0.000100 0.291480
vt 0.297945 0.287073
vt 0.287754 0.297619
vt 0.281478 0.269260
vt 0.269931 0.281103
vt 0.260391 0.245002
vt 0.245460 0.259466
vt 0.054915 0.001290
vt 0.069112 0.020159
vt 0.058572 0.038599
vt 0.044582 0.021841
vt 0.044402 0.052944
vt 0.027802 0.037777
vt 0.025282 0.062840
vt 0.006423 0.047690
vt 0.091108 0.040579
vt 0.077296 0.057553
vt 0.062474 0.072187
vt 0.045100 0.085535
vt 0.297642 0.712039
vt 0.287098 0.701847
vt 0.281126 0.729854
vt 0.269289 0.718310
vt 0.259498 0.754313
vt 0.245041 0.739390
vt 0.702110 0.287963
vt 0.712653 0.298155
vt 0.718626 0.270147
vt 0.730463 0.281693
vt 0.740266 0.245676
vt 0.754705 0.260628
vt 0.063321 0.974223
vt 0.048874 0.992792
vt 0.038911 0.972153
vt 0.053187 0.955540
vt 0.022285 0.956079
vt 0.039007 0.941188
vt 0.000995 0.945806
vt 0.020146 0.930901
vt 0.085703 0.954534
vt 0.072390 0.937297
vt 0.057774 0.922471
vt 0.040689 0.908629
vt 0.936451 0.025081
vt 0.951759 0.006274
vt 0.961559 0.027767
vt 0.946319 0.044157
vt 0.977263 0.044714
vt 0.960357 0.058643
vt 0.997690 0.055086
vt 0.978842 0.069152
vt 0.913737 0.045113
vt 0.927351 0.062663
vt 0.941449 0.077288
vt 0.958258 0.090864
vt 0.711996 0.702380
vt 0.701804 0.712926
vt 0.729818 0.718896
vt 0.718272 0.730739
vt 0.754290 0.740531
vt 0.739360 0.754995
vt 0.974320 0.936797
vt 0.992898 0.951251
vt 0.972249 0.961220
vt 0.955627 0.946938
vt 0.956168 0.977855
vt 0.941269 0.961125
vt 0.945890 0.999157
vt 0.930977 0.979997
vt 0.954619 0.914405
vt 0.937374 0.927726
vt 0.922541 0.942350
vt 0.908692 0.959444
vn 0.0427 -0.8310 -0.5546
vn -0.0427 -0.8310 -0.5546
vn -0.1082 -0.5816 -0.8062
vn 0.1082 -0.5816 -0.8062
vn -0.1376 -0.1317 -0.9817
vn 0.1376 -0.1317 -0.9817
vn -0.9817 -0.1317 0.1376
vn -0.9869 0.0869 0.1358
vn -0.9869 0.0869 -0.1358
vn -0.9817 -0.1317 -0.1376
vn 0.1393 -0.1311 0.9815
vn 0.1366 0.0868 0.9868
vn -0.1358 0.0869 0.9869
vn -0.1376 -0.1317 0.9817
vn -0.9221 0.3648 0.1284
vn -0.9221 0.3648 -0.1284
vn -0.6502 0.7559 0.0767
vn -0.6502 0.7559 -0.0767
vn 0.2193 0.9755 -0.0159
vn 0.2193 0.9755 0.0159
vn 0.6502 0.7559 0.0767
vn 0.6502 0.7559 -0.0767
vn 0.9221 0.3648 -0.1284
vn 0.9221 0.3648 0.1284
vn 0.9869 0.0870 0.1357
vn 0.9869 0.0869 -0.1358
vn -0.1284 0.3648 -0.9221
vn 0.1284 0.3648 -0.9221
vn 0.1358 0.0869 -0.9869
vn -0.1358 0.0869 -0.9869
vn 0.0159 0.9755 0.2193
vn -0.0159 0.9755 0.2193
vn -0.0767 0.7559 0.6502
vn 0.0767 0.7559 0.6502
vn -0.1284 0.3648 0.9221
vn 0.1284 0.3648 0.9221
vn -0.0767 0.7559 -0.6502
vn 0.0767 0.7559 -0.6502
vn 0.1710 0.9814 -0.0868
vn 0.0868 0.9814 -0.1710
vn 0.0159 0.9755 -0.2193
vn -0.0159 0.9755 -0.2193
vn -0.0868 0.9814 -0.1710
vn -0.1710 0.9814 -0.0868
vn -0.2193 0.9755 -0.0159
vn -0.2193 0.9755 0.0159
vn -0.1710 0.9814 0.0868
vn -0.0868 0.9814 0.1710
vn 0.0868 0.9814 0.1710
vn 0.1710 0.9814 0.0868
vn -0.8062 -0.5816 -0.1082
vn -0.8062 -0.5816 0.1082
vn -0.1082 -0.5816 0.8062
vn 0.1090 -0.5813 0.8064
vn 0.5546 -0.8310 0.0427
vn 0.5546 -0.8310 -0.0427
vn 0.8062 -0.5816 -0.1082
vn 0.8057 -0.5824 0.1072
vn 0.9817 -0.1317 -0.1376
vn 0.9814 -0.1332 0.1385
vn -0.0427 -0.8310 0.5546
vn 0.0427 -0.8310 0.5546
vn -0.5546 -0.8310 -0.0427
vn -0.5546 -0.8310 0.0427
vn -0.2937 0.7958 0.5296
vn -0.5296 0.7958 0.2937
vn -0.4577 0.4161 0.7857
vn -0.7857 0.4161 0.4577
vn -0.5012 0.1052 0.8589
vn -0.8589 0.1052 0.5012
vn -0.3910 -0.6196 0.6805
vn -0.2140 -0.8831 0.4174
vn -0.6805 -0.6196 0.3910
vn -0.4174 -0.8831 0.2140
vn -0.4994 -0.1562 0.8521
vn -0.8521 -0.1562 0.4994
vn -0.2937 0.7958 -0.5296
vn -0.5296 0.7958 -0.2937
vn -0.4577 0.4161 -0.7857
vn -0.7857 0.4161 -0.4577
vn -0.5012 0.1052 -0.8589
vn -0.8589 0.1052 -0.5012
vn 0.2937 0.7958 0.5296
vn 0.5296 0.7958 0.2937
vn 0.4577 0.4161 0.7857
vn 0.7857 0.4161 0.4577
vn 0.5001 0.1053 0.8595
vn 0.8579 0.1057 0.5027
vn -0.2140 -0.8831 -0.4174
vn -0.3910 -0.6196 -0.6805
vn -0.4174 -0.8831 -0.2140
vn -0.6805 -0.6196 -0.3910
vn -0.4994 -0.1562 -0.8521
vn -0.8521 -0.1562 -0.4994
vn 0.2140 -0.8831 0.4174
vn 0.3890 -0.6200 0.6813
vn 0.4174 -0.8831 0.2140
vn 0.6784 -0.6221 0.3907
vn 0.4980 -0.1573 0.8527
vn 0.8494 -0.1586 0.5034
vn 0.5296 0.7958 -0.2937
vn 0.2937 0.7958 -0.5296
vn 0.7857 0.4161 -0.4577
vn 0.4577 0.4161 -0.7857
vn 0.8589 0.1052 -0.5012
vn 0.5012 0.1052 -0.8589
vn 0.4174 -0.8831 -0.2140
vn 0.6805 -0.6196 -0.3910
vn 0.2140 -0.8831 -0.4174
vn 0.3910 -0.6196 -0.6805
vn 0.8521 -0.1562 -0.4994
vn 0.4994 -0.1562 -0.8521
usemtl grass
s 1
f 101/1/1 62/2/2 70/3/3 109/4/4
f 109/4/4 70/3/3 66/5/5 105/6/6
f 22/7/7 5/8/8 34/9/9 65/10/10
f 77/11/11 49/12/12 6/13/13 21/14/14
f 13/15/15 42/16/16 34/9/9 5/8/8
f 9/17/17 38/18/18 42/16/16 13/15/15
f 85/19/19 46/20/20 54/21/21 93/22/22
f 97/23/23 58/24/24 50/25/25 89/26/26
f 41/27/27 98/28/28 90/29/29 33/30/30
f 45/31/31 2/32/32 10/33/33 53/34/34
f 53/34/34 10/33/33 14/35/35 57/36/36
f 37/37/37 94/38/38 98/28/28 41/27/27
f 85/19/19 87/39/39 88/40/40 86/41/41 29/42/42 31/43/43 32/44/44 30/45/45 1/46/46 3/47/47 4/48/48 2/32/32 45/31/31 47/49/49 48/50/50 46/20/20
f 69/51/51 26/52/52 22/7/7 65/10/10
f 57/36/36 14/35/35 6/13/13 49/12/12
f 25/53/53 80/54/54 77/11/11 21/14/14
f 73/55/55 102/56/56 110/57/57 79/58/58
f 79/58/58 110/57/57 106/59/59 83/60/60
f 17/61/61 74/62/62 80/54/54 25/53/53
f 61/63/63 18/64/64 26/52/52 69/51/51
f 93/22/22 54/21/21 58/24/24 97/23/23
f 106/59/59 89/26/26 50/25/25 83/60/60
f 10/33/33 2/32/32 4/48/48 12/65/65
f 12/65/65 4/48/48 3/47/47 11/66/66
f 11/66/66 3/47/47 1/46/46 9/17/17
f 14/35/35 10/33/33 12/65/65 16/67/67
f 16/67/67 12/65/65 11/66/66 15/68/68
f 15/68/68 11/66/66 9/17/17 13/15/15
f 6/13/13 14/35/35 16/67/67 8/69/69
f 8/69/69 16/67/67 15/68/68 7/70/70
f 7/70/70 15/68/68 13/15/15 5/8/8
f 17/71/61 25/72/53 27/73/71 19/74/72
f 19/74/72 27/73/71 28/75/73 20/76/74
f 20/76/74 28/75/73 26/77/52 18/78/64
f 25/72/53 21/79/14 23/80/75 27/73/71
f 27/73/71 23/80/75 24/81/76 28/75/73
f 28/75/73 24/81/76 22/82/7 26/77/52
f 5/8/8 22/82/7 24/81/76 7/70/70
f 7/70/70 24/81/76 23/80/75 8/69/69
f 8/69/69 23/80/75 21/79/14 6/13/13
f 66/5/5 33/30/30 90/29/29 105/6/6
f 29/42/42 37/37/37 39/83/77 31/43/43
f 31/43/43 39/83/77 40/84/78 32/44/44
f 32/44/44 40/84/78 38/18/18 30/45/45
f 37/37/37 41/27/27 43/85/79 39/83/77
f 39/83/77 43/85/79 44/86/80 40/84/78
f 40/84/78 44/86/80 42/16/16 38/18/18
f 41/27/27 33/30/30 35/87/81 43/85/79
f 43/85/79 35/87/81 36/88/82 44/86/80
f 44/86/80 36/88/82 34/9/9 42/16/16
f 45/31/31 53/34/34 55/89/83 47/49/49
f 47/49/49 55/89/83 56/90/84 48/50/50
f 48/50/50 56/90/84 54/21/21 46/20/20
f 53/34/34 57/36/36 59/91/85 55/89/83
f 55/89/83 59/91/85 60/92/86 56/90/84
f 56/90/84 60/92/86 58/24/24 54/21/21
f 57/36/36 49/12/12 51/93/87 59/91/85
f 59/91/85 51/93/87 52/94/88 60/92/86
f 60/92/86 52/94/88 50/25/25 58/24/24
f 70/95/3 62/96/2 64/97/89 72/98/90
f 72/98/90 64/97/89 63/99/91 71/100/92
f 71/100/92 63/99/91 61/101/63 69/102/51
f 66/103/5 70/95/3 72/98/90 68/104/93
f 68/104/93 72/98/90 71/100/92 67/105/94
f 67/105/94 71/100/92 69/102/51 65/106/10
f 80/107/54 74/108/62 76/109/95 82/110/96
f 82/110/96 76/109/95 75/111/97 81/112/98
f 81/112/98 75/111/97 73/113/55 79/114/58
f 77/115/11 80/107/54 82/110/96 78/116/99
f 78/116/99 82/110/96 81/112/98 84/117/100
f 84/117/100 81/112/98 79/114/58 83/118/60
f 83/118/60 50/25/25 52/94/88 84/117/100
f 84/117/100 52/94/88 51/93/87 78/116/99
f 78/116/99 51/93/87 49/12/12 77/115/11
f 33/30/30 66/103/5 68/104/93 35/87/81
f 35/87/81 68/104/93 67/105/94 36/88/82
f 36/88/82 67/105/94 65/106/10 34/9/9
f 1/46/46 30/45/45 38/18/18 9/17/17
f 85/19/19 93/22/22 95/119/101 87/39/39
f 87/39/39 95/119/101 96/120/102 88/40/40
f 88/40/40 96/120/102 94/38/38 86/41/41
f 93/22/22 97/23/23 99/121/103 95/119/101
f 95/119/101 99/121/103 100/122/104 96/120/102
f 96/120/102 100/122/104 98/28/28 94/38/38
f 97/23/23 89/26/26 91/123/105 99/121/103
f 99/121/103 91/123/105 92/124/106 100/122/104
f 100/122/104 92/124/106 90/29/29 98/28/28
f 110/125/57 102/126/56 104/127/107 112/128/108
f 112/128/108 104/127/107 103/129/109 111/130/110
f 111/130/110 103/129/109 101/131/1 109/132/4
f 106/133/59 110/125/57 112/128/108 108/134/111
f 108/134/111 112/128/108 111/130/110 107/135/112
f 107/135/112 111/130/110 109/132/4 105/136/6
f 89/26/26 106/133/59 108/134/111 91/123/105
f 91/123/105 108/134/111 107/135/112 92/124/106
f 92/124/106 107/135/112 105/136/6 90/29/29
f 29/42/42 86/41/41 94/38/38 37/37/37
